<svg width="18" height="19" viewBox="0 0 18 19" fill="none" xmlns="http://www.w3.org/2000/svg">
<path d="M16.5 9.5C16.5 11.4891 15.7098 13.3968 14.3033 14.8033C12.8968 16.2098 10.9891 17 9 17C8.01509 17 7.03982 16.806 6.12987 16.4291C5.21993 16.0522 4.39314 15.4997 3.6967 14.8033C2.29018 13.3968 1.5 11.4891 1.5 9.5C1.5 7.51088 2.29018 5.60322 3.6967 4.1967C5.10322 2.79018 7.01088 2 9 2C9.98491 2 10.9602 2.19399 11.8701 2.5709C12.7801 2.94781 13.6069 3.50026 14.3033 4.1967C14.9997 4.89314 15.5522 5.71993 15.9291 6.62987C16.306 7.53982 16.5 8.51509 16.5 9.5ZM15 9.5C15 7.9087 14.3679 6.38258 13.2426 5.25736C12.1174 4.13214 10.5913 3.5 9 3.5C7.4087 3.5 5.88258 4.13214 4.75736 5.25736C3.63214 6.38258 3 7.9087 3 9.5C3 11.0913 3.63214 12.6174 4.75736 13.7426C5.88258 14.8679 7.4087 15.5 9 15.5C10.5913 15.5 12.1174 14.8679 13.2426 13.7426C14.3679 12.6174 15 11.0913 15 9.5ZM4.5 8L9 12.5L13.5 8L12.45 6.95L9 10.4L5.55 6.95L4.5 8Z" fill="#222222"/>
</svg>
