<svg width="24" height="25" viewBox="0 0 24 25" fill="none" xmlns="http://www.w3.org/2000/svg">
<path d="M6 8.5H15V6.5C15 5.66667 14.7083 4.95833 14.125 4.375C13.5417 3.79167 12.8333 3.5 12 3.5C11.1667 3.5 10.4583 3.79167 9.875 4.375C9.29167 4.95833 9 5.66667 9 6.5H7C7 5.11667 7.48767 3.93733 8.463 2.962C9.43833 1.98667 10.6173 1.49933 12 1.5C13.3833 1.5 14.5627 1.98767 15.538 2.963C16.5133 3.93833 17.0007 5.11733 17 6.5V8.5H18C18.55 8.5 19.021 8.696 19.413 9.088C19.805 9.48 20.0007 9.95067 20 10.5V20.5C20 21.05 19.804 21.521 19.412 21.913C19.02 22.305 18.5493 22.5007 18 22.5H6C5.45 22.5 4.979 22.304 4.587 21.912C4.195 21.52 3.99934 21.0493 4 20.5V10.5C4 9.95 4.196 9.479 4.588 9.087C4.98 8.695 5.45067 8.49933 6 8.5ZM6 20.5H18V10.5H6V20.5ZM12 17.5C12.55 17.5 13.021 17.304 13.413 16.912C13.805 16.52 14.0007 16.0493 14 15.5C14 14.95 13.804 14.479 13.412 14.087C13.02 13.695 12.5493 13.4993 12 13.5C11.45 13.5 10.979 13.696 10.587 14.088C10.195 14.48 9.99933 14.9507 10 15.5C10 16.05 10.196 16.521 10.588 16.913C10.98 17.305 11.4507 17.5007 12 17.5Z" fill="#222222"/>
</svg>
