<svg width="24" height="29" viewBox="0 0 24 29" fill="none" xmlns="http://www.w3.org/2000/svg">
<path d="M9.33333 25.9974H14.6667C14.6667 27.4641 13.4667 28.6641 12 28.6641C10.5333 28.6641 9.33333 27.4641 9.33333 25.9974ZM24 23.3307V24.6641H0V23.3307L2.66667 20.6641V12.6641C2.66667 8.53073 5.33333 4.93073 9.33333 3.73073V3.33073C9.33333 1.86406 10.5333 0.664062 12 0.664062C13.4667 0.664062 14.6667 1.86406 14.6667 3.33073V3.73073C18.6667 4.93073 21.3333 8.53073 21.3333 12.6641V20.6641L24 23.3307ZM18.6667 12.6641C18.6667 8.93073 15.7333 5.9974 12 5.9974C8.26667 5.9974 5.33333 8.93073 5.33333 12.6641V21.9974H18.6667V12.6641Z" fill="#222222"/>
</svg>
